<?xml version="1.0" encoding="UTF-8"?>
<svg id="Layer_2" data-name="Layer 2" xmlns="http://www.w3.org/2000/svg" viewBox="0 0 517.86 135">
  <defs>
    <style>
      .cls-1 {
        fill: #fff;
        stroke-width: 0px;
      }
    </style>
  </defs>
  <g id="Layer_1-2" data-name="Layer 1">
    <path class="cls-1" d="M450.36,0H67.5C30.22,0,0,30.22,0,67.5h0c0,37.28,30.22,67.5,67.5,67.5h382.86c37.28,0,67.5-30.22,67.5-67.5h0c0-37.28-30.22-67.5-67.5-67.5ZM492.29,67.5c0,25.24-20.46,45.7-45.7,45.7H68.7c-25.24,0-45.7-20.46-45.7-45.7h0c0-25.24,20.46-45.7,45.7-45.7h377.9c25.24,0,45.7,20.46,45.7,45.7h0Z"/>
  </g>
</svg>